<mxfile host="app.diagrams.net" agent="Mozilla/5.0 (Windows NT 10.0; Win64; x64) AppleWebKit/537.36 (KHTML, like Gecko) Chrome/135.0.0.0 Safari/537.36 Edg/135.0.0.0" version="26.2.9">
  <diagram id="mKbvPeorIQRW5qpzDxqe" name="Page-1">
    <mxGraphModel dx="1867" dy="613" grid="1" gridSize="10" guides="1" tooltips="1" connect="1" arrows="1" fold="1" page="1" pageScale="1" pageWidth="827" pageHeight="1169" math="0" shadow="0">
      <root>
        <mxCell id="0" />
        <mxCell id="1" parent="0" />
        <mxCell id="teQ1_9NzhHzPQ8D021Bd-1" value="" style="sketch=0;points=[[0,0,0],[0.25,0,0],[0.5,0,0],[0.75,0,0],[1,0,0],[0,1,0],[0.25,1,0],[0.5,1,0],[0.75,1,0],[1,1,0],[0,0.25,0],[0,0.5,0],[0,0.75,0],[1,0.25,0],[1,0.5,0],[1,0.75,0]];outlineConnect=0;fontColor=#232F3E;fillColor=#8C4FFF;strokeColor=#ffffff;dashed=0;verticalLabelPosition=bottom;verticalAlign=top;align=center;html=1;fontSize=12;fontStyle=0;aspect=fixed;shape=mxgraph.aws4.resourceIcon;resIcon=mxgraph.aws4.kinesis_data_streams;" vertex="1" parent="1">
          <mxGeometry x="-102" y="186" width="78" height="78" as="geometry" />
        </mxCell>
        <mxCell id="teQ1_9NzhHzPQ8D021Bd-8" value="" style="edgeStyle=orthogonalEdgeStyle;rounded=0;orthogonalLoop=1;jettySize=auto;html=1;" edge="1" parent="1" source="teQ1_9NzhHzPQ8D021Bd-2" target="teQ1_9NzhHzPQ8D021Bd-3">
          <mxGeometry relative="1" as="geometry" />
        </mxCell>
        <mxCell id="teQ1_9NzhHzPQ8D021Bd-2" value="" style="sketch=0;points=[[0,0,0],[0.25,0,0],[0.5,0,0],[0.75,0,0],[1,0,0],[0,1,0],[0.25,1,0],[0.5,1,0],[0.75,1,0],[1,1,0],[0,0.25,0],[0,0.5,0],[0,0.75,0],[1,0.25,0],[1,0.5,0],[1,0.75,0]];outlineConnect=0;fontColor=#232F3E;fillColor=#ED7100;strokeColor=#ffffff;dashed=0;verticalLabelPosition=bottom;verticalAlign=top;align=center;html=1;fontSize=12;fontStyle=0;aspect=fixed;shape=mxgraph.aws4.resourceIcon;resIcon=mxgraph.aws4.lambda;" vertex="1" parent="1">
          <mxGeometry x="56" y="186" width="78" height="78" as="geometry" />
        </mxCell>
        <mxCell id="teQ1_9NzhHzPQ8D021Bd-9" value="" style="edgeStyle=orthogonalEdgeStyle;rounded=0;orthogonalLoop=1;jettySize=auto;html=1;" edge="1" parent="1" source="teQ1_9NzhHzPQ8D021Bd-3" target="teQ1_9NzhHzPQ8D021Bd-4">
          <mxGeometry relative="1" as="geometry" />
        </mxCell>
        <mxCell id="teQ1_9NzhHzPQ8D021Bd-3" value="" style="sketch=0;points=[[0,0,0],[0.25,0,0],[0.5,0,0],[0.75,0,0],[1,0,0],[0,1,0],[0.25,1,0],[0.5,1,0],[0.75,1,0],[1,1,0],[0,0.25,0],[0,0.5,0],[0,0.75,0],[1,0.25,0],[1,0.5,0],[1,0.75,0]];outlineConnect=0;fontColor=#232F3E;fillColor=#C925D1;strokeColor=#ffffff;dashed=0;verticalLabelPosition=bottom;verticalAlign=top;align=center;html=1;fontSize=12;fontStyle=0;aspect=fixed;shape=mxgraph.aws4.resourceIcon;resIcon=mxgraph.aws4.dynamodb;" vertex="1" parent="1">
          <mxGeometry x="186" y="186" width="78" height="78" as="geometry" />
        </mxCell>
        <mxCell id="teQ1_9NzhHzPQ8D021Bd-22" value="" style="edgeStyle=orthogonalEdgeStyle;rounded=0;orthogonalLoop=1;jettySize=auto;html=1;" edge="1" parent="1" source="teQ1_9NzhHzPQ8D021Bd-4">
          <mxGeometry relative="1" as="geometry">
            <mxPoint x="460" y="200" as="targetPoint" />
          </mxGeometry>
        </mxCell>
        <mxCell id="teQ1_9NzhHzPQ8D021Bd-4" value="" style="sketch=0;points=[[0,0,0],[0.25,0,0],[0.5,0,0],[0.75,0,0],[1,0,0],[0,1,0],[0.25,1,0],[0.5,1,0],[0.75,1,0],[1,1,0],[0,0.25,0],[0,0.5,0],[0,0.75,0],[1,0.25,0],[1,0.5,0],[1,0.75,0]];outlineConnect=0;fontColor=#232F3E;fillColor=#ED7100;strokeColor=#ffffff;dashed=0;verticalLabelPosition=bottom;verticalAlign=top;align=center;html=1;fontSize=12;fontStyle=0;aspect=fixed;shape=mxgraph.aws4.resourceIcon;resIcon=mxgraph.aws4.lambda;" vertex="1" parent="1">
          <mxGeometry x="316" y="186" width="78" height="78" as="geometry" />
        </mxCell>
        <mxCell id="teQ1_9NzhHzPQ8D021Bd-5" value="" style="sketch=0;points=[[0,0,0],[0.25,0,0],[0.5,0,0],[0.75,0,0],[1,0,0],[0,1,0],[0.25,1,0],[0.5,1,0],[0.75,1,0],[1,1,0],[0,0.25,0],[0,0.5,0],[0,0.75,0],[1,0.25,0],[1,0.5,0],[1,0.75,0]];outlineConnect=0;fontColor=#232F3E;fillColor=#8C4FFF;strokeColor=#ffffff;dashed=0;verticalLabelPosition=bottom;verticalAlign=top;align=center;html=1;fontSize=12;fontStyle=0;aspect=fixed;shape=mxgraph.aws4.resourceIcon;resIcon=mxgraph.aws4.glue;" vertex="1" parent="1">
          <mxGeometry x="543" y="186" width="78" height="78" as="geometry" />
        </mxCell>
        <mxCell id="teQ1_9NzhHzPQ8D021Bd-6" value="" style="sketch=0;points=[[0,0,0],[0.25,0,0],[0.5,0,0],[0.75,0,0],[1,0,0],[0,1,0],[0.25,1,0],[0.5,1,0],[0.75,1,0],[1,1,0],[0,0.25,0],[0,0.5,0],[0,0.75,0],[1,0.25,0],[1,0.5,0],[1,0.75,0]];outlineConnect=0;fontColor=#232F3E;fillColor=#7AA116;strokeColor=#ffffff;dashed=0;verticalLabelPosition=bottom;verticalAlign=top;align=center;html=1;fontSize=12;fontStyle=0;aspect=fixed;shape=mxgraph.aws4.resourceIcon;resIcon=mxgraph.aws4.s3;" vertex="1" parent="1">
          <mxGeometry x="465" y="336" width="58" height="58" as="geometry" />
        </mxCell>
        <mxCell id="teQ1_9NzhHzPQ8D021Bd-10" value="" style="endArrow=classic;html=1;rounded=0;exitX=1;exitY=0.25;exitDx=0;exitDy=0;exitPerimeter=0;" edge="1" parent="1" source="teQ1_9NzhHzPQ8D021Bd-3">
          <mxGeometry width="50" height="50" relative="1" as="geometry">
            <mxPoint x="256" y="236" as="sourcePoint" />
            <mxPoint x="264" y="206" as="targetPoint" />
            <Array as="points" />
          </mxGeometry>
        </mxCell>
        <mxCell id="teQ1_9NzhHzPQ8D021Bd-12" value="" style="endArrow=classic;html=1;rounded=0;exitX=0;exitY=0.25;exitDx=0;exitDy=0;exitPerimeter=0;entryX=1;entryY=0.25;entryDx=0;entryDy=0;entryPerimeter=0;" edge="1" parent="1" source="teQ1_9NzhHzPQ8D021Bd-4" target="teQ1_9NzhHzPQ8D021Bd-3">
          <mxGeometry width="50" height="50" relative="1" as="geometry">
            <mxPoint x="264" y="196" as="sourcePoint" />
            <mxPoint x="314" y="146" as="targetPoint" />
          </mxGeometry>
        </mxCell>
        <mxCell id="teQ1_9NzhHzPQ8D021Bd-13" value="" style="endArrow=classic;html=1;rounded=0;exitX=0;exitY=0.25;exitDx=0;exitDy=0;exitPerimeter=0;" edge="1" parent="1">
          <mxGeometry width="50" height="50" relative="1" as="geometry">
            <mxPoint x="544" y="205.5" as="sourcePoint" />
            <mxPoint x="482" y="316" as="targetPoint" />
            <Array as="points">
              <mxPoint x="482" y="206" />
            </Array>
          </mxGeometry>
        </mxCell>
        <mxCell id="teQ1_9NzhHzPQ8D021Bd-14" value="Glue" style="text;html=1;align=center;verticalAlign=middle;resizable=0;points=[];autosize=1;strokeColor=none;fillColor=none;" vertex="1" parent="1">
          <mxGeometry x="558" y="264" width="50" height="30" as="geometry" />
        </mxCell>
        <mxCell id="teQ1_9NzhHzPQ8D021Bd-15" value="S3 Bucket" style="text;html=1;align=center;verticalAlign=middle;resizable=0;points=[];autosize=1;strokeColor=none;fillColor=none;" vertex="1" parent="1">
          <mxGeometry x="455" y="394" width="80" height="30" as="geometry" />
        </mxCell>
        <mxCell id="teQ1_9NzhHzPQ8D021Bd-16" value="Lambda" style="text;html=1;align=center;verticalAlign=middle;resizable=0;points=[];autosize=1;strokeColor=none;fillColor=none;" vertex="1" parent="1">
          <mxGeometry x="320" y="264" width="70" height="30" as="geometry" />
        </mxCell>
        <mxCell id="teQ1_9NzhHzPQ8D021Bd-17" value="DynamoDB" style="text;html=1;align=center;verticalAlign=middle;resizable=0;points=[];autosize=1;strokeColor=none;fillColor=none;" vertex="1" parent="1">
          <mxGeometry x="184" y="264" width="80" height="30" as="geometry" />
        </mxCell>
        <mxCell id="teQ1_9NzhHzPQ8D021Bd-18" value="Lambda" style="text;html=1;align=center;verticalAlign=middle;resizable=0;points=[];autosize=1;strokeColor=none;fillColor=none;" vertex="1" parent="1">
          <mxGeometry x="60" y="264" width="70" height="30" as="geometry" />
        </mxCell>
        <mxCell id="teQ1_9NzhHzPQ8D021Bd-19" value="Kinesis Data&lt;br&gt;Streams" style="text;html=1;align=center;verticalAlign=middle;resizable=0;points=[];autosize=1;strokeColor=none;fillColor=none;" vertex="1" parent="1">
          <mxGeometry x="-108" y="259" width="90" height="40" as="geometry" />
        </mxCell>
        <mxCell id="teQ1_9NzhHzPQ8D021Bd-20" value="AWS Step Functions workflow" style="points=[[0,0],[0.25,0],[0.5,0],[0.75,0],[1,0],[1,0.25],[1,0.5],[1,0.75],[1,1],[0.75,1],[0.5,1],[0.25,1],[0,1],[0,0.75],[0,0.5],[0,0.25]];outlineConnect=0;gradientColor=none;html=1;whiteSpace=wrap;fontSize=12;fontStyle=0;container=1;pointerEvents=0;collapsible=0;recursiveResize=0;shape=mxgraph.aws4.group;grIcon=mxgraph.aws4.group_aws_step_functions_workflow;strokeColor=#CD2264;fillColor=none;verticalAlign=top;align=left;spacingLeft=30;fontColor=#CD2264;dashed=0;" vertex="1" parent="1">
          <mxGeometry x="467" y="144" width="180" height="150" as="geometry" />
        </mxCell>
        <mxCell id="teQ1_9NzhHzPQ8D021Bd-29" value="" style="edgeStyle=orthogonalEdgeStyle;rounded=0;orthogonalLoop=1;jettySize=auto;html=1;" edge="1" parent="1" source="teQ1_9NzhHzPQ8D021Bd-23" target="teQ1_9NzhHzPQ8D021Bd-25">
          <mxGeometry relative="1" as="geometry" />
        </mxCell>
        <mxCell id="teQ1_9NzhHzPQ8D021Bd-23" value="" style="whiteSpace=wrap;html=1;fillColor=none;" vertex="1" parent="1">
          <mxGeometry x="-116" y="170" width="110" height="120" as="geometry" />
        </mxCell>
        <mxCell id="teQ1_9NzhHzPQ8D021Bd-25" value="" style="whiteSpace=wrap;html=1;fillColor=none;" vertex="1" parent="1">
          <mxGeometry x="36.75" y="170" width="117.25" height="120" as="geometry" />
        </mxCell>
        <mxCell id="teQ1_9NzhHzPQ8D021Bd-26" value="" style="whiteSpace=wrap;html=1;fillColor=none;" vertex="1" parent="1">
          <mxGeometry x="294" y="170" width="112" height="120" as="geometry" />
        </mxCell>
        <mxCell id="teQ1_9NzhHzPQ8D021Bd-27" value="" style="whiteSpace=wrap;html=1;fillColor=none;" vertex="1" parent="1">
          <mxGeometry x="441.5" y="324" width="105" height="100" as="geometry" />
        </mxCell>
        <mxCell id="teQ1_9NzhHzPQ8D021Bd-30" value="" style="sketch=0;pointerEvents=1;shadow=0;dashed=0;html=1;strokeColor=none;fillColor=light-dark(#b62b2b, #a8a8a8);labelPosition=center;verticalLabelPosition=bottom;verticalAlign=top;outlineConnect=0;align=center;shape=mxgraph.office.servers.excahnge_client_access_server_role;" vertex="1" parent="1">
          <mxGeometry x="-262" y="205" width="52" height="59" as="geometry" />
        </mxCell>
        <mxCell id="teQ1_9NzhHzPQ8D021Bd-33" value="" style="edgeStyle=orthogonalEdgeStyle;rounded=0;orthogonalLoop=1;jettySize=auto;html=1;" edge="1" parent="1" source="teQ1_9NzhHzPQ8D021Bd-32" target="teQ1_9NzhHzPQ8D021Bd-23">
          <mxGeometry relative="1" as="geometry" />
        </mxCell>
        <mxCell id="teQ1_9NzhHzPQ8D021Bd-32" value="" style="whiteSpace=wrap;html=1;fillColor=none;" vertex="1" parent="1">
          <mxGeometry x="-296" y="170.5" width="120" height="119.5" as="geometry" />
        </mxCell>
        <mxCell id="teQ1_9NzhHzPQ8D021Bd-34" value="Incoming Data" style="text;html=1;align=center;verticalAlign=middle;resizable=0;points=[];autosize=1;strokeColor=none;fillColor=none;" vertex="1" parent="1">
          <mxGeometry x="-286" y="290" width="100" height="30" as="geometry" />
        </mxCell>
        <mxCell id="teQ1_9NzhHzPQ8D021Bd-35" value="AWS Cloud" style="sketch=0;outlineConnect=0;gradientColor=none;html=1;whiteSpace=wrap;fontSize=12;fontStyle=0;shape=mxgraph.aws4.group;grIcon=mxgraph.aws4.group_aws_cloud;strokeColor=#AAB7B8;fillColor=none;verticalAlign=top;align=left;spacingLeft=30;fontColor=#AAB7B8;dashed=0;" vertex="1" parent="1">
          <mxGeometry x="-340" y="20" width="1020" height="540" as="geometry" />
        </mxCell>
      </root>
    </mxGraphModel>
  </diagram>
</mxfile>
